<?xml version="1.0" encoding="utf-8"?>
<!-- Generator: Adobe Illustrator 23.0.1, SVG Export Plug-In . SVG Version: 6.00 Build 0)  -->
<!DOCTYPE svg PUBLIC "-//W3C//DTD SVG 1.1//EN" "http://www.w3.org/Graphics/SVG/1.1/DTD/svg11.dtd" [
	<!ENTITY ns_extend "http://ns.adobe.com/Extensibility/1.0/">
	<!ENTITY ns_ai "http://ns.adobe.com/AdobeIllustrator/10.0/">
	<!ENTITY ns_graphs "http://ns.adobe.com/Graphs/1.0/">
	<!ENTITY ns_vars "http://ns.adobe.com/Variables/1.0/">
	<!ENTITY ns_imrep "http://ns.adobe.com/ImageReplacement/1.0/">
	<!ENTITY ns_sfw "http://ns.adobe.com/SaveForWeb/1.0/">
	<!ENTITY ns_custom "http://ns.adobe.com/GenericCustomNamespace/1.0/">
	<!ENTITY ns_adobe_xpath "http://ns.adobe.com/XPath/1.0/">
]>
<svg version="1.1"
	 id="svg8" xmlns:x="&ns_extend;" xmlns:i="&ns_ai;" xmlns:graph="&ns_graphs;" xmlns:cc="http://creativecommons.org/ns#" xmlns:dc="http://purl.org/dc/elements/1.1/" xmlns:inkscape="http://www.inkscape.org/namespaces/inkscape" xmlns:rdf="http://www.w3.org/1999/02/22-rdf-syntax-ns#" xmlns:sodipodi="http://sodipodi.sourceforge.net/DTD/sodipodi-0.dtd" xmlns:svg="http://www.w3.org/2000/svg"
	 xmlns="http://www.w3.org/2000/svg" xmlns:xlink="http://www.w3.org/1999/xlink" x="0px" y="0px" viewBox="0 0 3153.7 3153.7"
	 style="enable-background:new 0 0 3153.7 3153.7;" xml:space="preserve">
<style type="text/css">
	.st0{fill:#FFFFFF;}
	.st1{fill:#BFA12E;}
</style>
<metadata  id="metadata5">
	<rdf:RDF>
		<cc:Work  rdf:about="">
			<dc:format>image/svg+xml</dc:format>
			<dc:type  rdf:resource="http://purl.org/dc/dcmitype/StillImage"></dc:type>
			<dc:title></dc:title>
		</cc:Work>
	</rdf:RDF>
	<sfw  xmlns="&ns_sfw;">
		<slices></slices>
		<sliceSourceBounds  bottomLeftOrigin="true" height="3153.7" width="3153.7" x="-1539.4" y="-1539.4"></sliceSourceBounds>
	</sfw>
</metadata>
<g>
	<rect id="rect119" class="st0" width="3153.7" height="3153.7"/>
	
		<path id="path117" inkscape:connector-curvature="0" sodipodi:nodetypes="ccccccccccccccccccsscccccccccccccccccsccccccccccccccccccccccccccscccscccsssccccccscccccccccccccccccc" class="st1" d="
		M0,0h3153.7v3153.7H0L0,0z M2917.2,236.5H236.5v2680.7h2680.7V236.5z M808.1,1768.6l-19.7-14.9c-161.1-121.5-258.4-305.3-266.3-503
		c-4.6-116.5,18.3-225.1,68.6-325.8c52.1-104,128.7-191.3,224.8-256c147.3-99.2,326.5-135.3,502.1-101.2
		c190.3,37,356.4,157,453,327.4c44.1,77.7,73.3,171.1,82.4,263c2.3,23,2.8,91.7,0.9,113.9l-1.2,14.6h832.4v1305.7H808.9
		L808.1,1768.6z M2471.1,1509.9l-346.3-0.4l-334.3-0.4l-6,11.7c-67.2,130.8-171.8,233.8-303.1,298.1c-75.5,37-150.5,57.9-235.7,65.5
		c-25.4,2.3-88.3,2.3-113.6,0c-37.8-3.4-90.7-12.6-117.9-20.4l-5.1-1.5v525.4l1461.9-0.8V1509.9z M1162.2,2015.2h890.9v242.8h-890.9
		V2015.2z M2025.4,1895.4v-303.5h300.5v303.5H2025.4z M1205.7,1681c55.9-3.1,104.4-13.9,152.8-33.8c36.7-15.2,81.6-41.6,112.7-66.5
		c19.2-15.3,61.9-58.7,75.9-77.1c33.9-44.7,56.3-86.6,73.1-137.2c28-84,31.4-169.7,10.1-256.2c-19.9-80.9-61.6-154.6-121.3-214.5
		c-89.9-90.1-213.9-139.3-340.6-135.1c-98,3.2-187.1,34.6-266.3,93.7c-22,16.4-67.2,60.9-83.8,82.5c-28.8,37.4-54.7,83.7-70,125.4
		c-9.5,25.8-18.7,61.6-23.2,90.8c-3,19.4-3.6,29-3.6,66.8c-0.1,46.5,0.9,57.9,8.1,93.8c13.9,69.3,46.1,137.9,91.9,195.5
		c16.9,21.2,49.8,54.1,71,71c76.1,60.4,167,95.4,262.4,100.8c11.3,0.6,21.3,1.3,22.2,1.4C1178,1682.4,1190.9,1681.8,1205.7,1681
		L1205.7,1681z M1028.1,1171.6V911.4h97.8h97.8v158.5v158.5l120.2,0.4l120.2,0.4l0.4,101.3l0.4,101.3h-218.4h-218.4L1028.1,1171.6z"
		/>
</g>
</svg>
