<svg xmlns="http://www.w3.org/2000/svg" viewBox="0 0 3153.7 3153.7"><path fill="#fff" d="M0 0h3153.7v3153.7H0z"/><path d="M0 0h3153.7v3153.7H0V0zm2917.2 236.5H236.5v2680.7h2680.7V236.5zM808.1 1768.6l-19.7-14.9c-161.1-121.5-258.4-305.3-266.3-503-4.6-116.5 18.3-225.1 68.6-325.8 52.1-104 128.7-191.3 224.8-256 147.3-99.2 326.5-135.3 502.1-101.2 190.3 37 356.4 157 453 327.4 44.1 77.7 73.3 171.1 82.4 263 2.3 23 2.8 91.7.9 113.9l-1.2 14.6h832.4v1305.7H808.9l-.8-823.7zm1663-258.7l-346.3-.4-334.3-.4-6 11.7c-67.2 130.8-171.8 233.8-303.1 298.1-75.5 37-150.5 57.9-235.7 65.5-25.4 2.3-88.3 2.3-113.6 0-37.8-3.4-90.7-12.6-117.9-20.4l-5.1-1.5v525.4l1461.9-.8v-877.2zm-1308.9 505.3h890.9V2258h-890.9v-242.8zm863.2-119.8v-303.5h300.5v303.5h-300.5zM1205.7 1681c55.9-3.1 104.4-13.9 152.8-33.8 36.7-15.2 81.6-41.6 112.7-66.5 19.2-15.3 61.9-58.7 75.9-77.1 33.9-44.7 56.3-86.6 73.1-137.2 28-84 31.4-169.7 10.1-256.2-19.9-80.9-61.6-154.6-121.3-214.5-89.9-90.1-213.9-139.3-340.6-135.1-98 3.2-187.1 34.6-266.3 93.7-22 16.4-67.2 60.9-83.8 82.5-28.8 37.4-54.7 83.7-70 125.4-9.5 25.8-18.7 61.6-23.2 90.8-3 19.4-3.6 29-3.6 66.8-.1 46.5.9 57.9 8.1 93.8 13.9 69.3 46.1 137.9 91.9 195.5 16.9 21.2 49.8 54.1 71 71 76.1 60.4 167 95.4 262.4 100.8 11.3.6 21.3 1.3 22.2 1.4.9.1 13.8-.5 28.6-1.3zm-177.6-509.4V911.4h195.6v317l120.2.4 120.2.4.4 101.3.4 101.3h-436.8v-260.2z" fill="#bfa12e"/></svg>